<?xml version="1.0" standalone="no"?> <!DOCTYPE svg PUBLIC "-//W3C//DTD SVG 20010904//EN" "http://www.w3.org/TR/2001/REC-SVG-20010904/DTD/svg10.dtd"> <svg version="1.0" xmlns="http://www.w3.org/2000/svg" width="600.000000pt" height="600.000000pt" viewBox="0 0 600.000000 600.000000" preserveAspectRatio="xMidYMid meet"> <g transform="translate(0.000000,600.000000) scale(0.066667,-0.066667)" fill="#e60a0a" stroke="none"> <path d="M2547 7680 c-160 -86 -179 -318 -34 -429 l57 -43 1096 -9 c1288 -11 1389 -21 1809 -187 2029 -800 2333 -3535 527 -4749 -578 -388 -870 -451 -2136 -459 l-911 -6 -4 1925 -3 1925 -36 49 c-103 144 -332 140 -424 -8 l-35 -56 -8 -2173 -7 -2172 1222 6 c1368 7 1325 4 1736 122 1681 485 2664 2243 2200 3935 -326 1192 -1303 2084 -2536 2316 -265 50 -2423 61 -2513 13z"/> <path d="M1294 4152 l4 -2710 30 -41 c118 -158 348 -146 437 23 l35 66 0 2427 0 2428 1414 0 c1678 0 1702 -2 2059 -171 1348 -637 1443 -2494 167 -3261 -308 -185 -614 -258 -1079 -258 l-266 0 0 949 0 950 -34 67 c-69 137 -254 177 -379 82 -101 -77 -96 -14 -97 -1353 l-1 -1212 567 4 c803 7 1040 52 1453 273 1822 973 1604 3671 -349 4319 -373 124 -179 116 -2859 125 l-1106 4 4 -2711z"/> </g> </svg>